# xmcd
#
# Track frame offsets:
#	150
#	17343
#	35413
#	57617
#	75146
#	94795
#	113253
#	129985
#	149560
#	170810
#	190726
#	208490
#	225257
#	244316
#
# Disc length: 3449 seconds
#
# Revision: 5
# Processed by: cddbd v1.5.2PL0 Copyright (c) Steve Scherf et al.
# Submitted via: Jack! The Knife
#
DISCID=b40d770e
DTITLE=Nek - Lei, gli amici e tutto il resto
DYEAR=1996
DGENRE=Pop
TTITLE0=Laura non c'è
TTITLE1=Sei grande
TTITLE2=Restiamo qui
TTITLE3=Vivere senza te
TTITLE4=Tu sei, tu sai
TTITLE5=Sei
TTITLE6=Dimmi cos'è
TTITLE7=Vai sola
TTITLE8=Solo
TTITLE9=E non mi dire che ho bevuto
TTITLE10=Nati per vivere
TTITLE11=Andare, partire, tornare
TTITLE12=Di più
TTITLE13=Fianco a fianco
EXTD=Lei, gli amici e tutto il resto
EXTT0=
EXTT1=
EXTT2=
EXTT3=
EXTT4=
EXTT5=
EXTT6=
EXTT7=
EXTT8=
EXTT9=
EXTT10=
EXTT11=
EXTT12=
EXTT13=
PLAYORDER=
